<svg width="15" height="14" viewBox="0 0 15 14" fill="none" xmlns="http://www.w3.org/2000/svg">
<path d="M5.96875 1.0625C5.65625 1.375 5.6875 1.84375 5.96875 2.15625L9.75 5.75L0.75 5.75C0.34375 5.75 0 6.0625 0 6.5V7.5C0 7.90625 0.34375 8.25 0.75 8.25L9.75 8.25L5.96875 11.8125C5.6875 12.125 5.65625 12.5938 5.96875 12.9062L6.65625 13.5938C6.9375 13.875 7.4375 13.875 7.71875 13.5938L13.7812 7.5C14.0937 7.21875 14.0937 6.75 13.7812 6.46875L7.71875 0.375C7.4375 0.09375 6.96875 0.09375 6.65625 0.375L5.96875 1.0625Z" fill="white"/>
</svg>
